<svg xmlns="http://www.w3.org/2000/svg" width="33.023" height="34.704" viewBox="0 0 33.023 34.704"><defs><style>.a{fill:#fff;}</style></defs><g transform="translate(0 0)"><path class="a" d="M42.768,8.438l-5.79-2.389s0-.009,0-.013c0-1.367-.541-3.659-4.166-3.659a10.238,10.238,0,0,0-3.884.879A6.692,6.692,0,0,1,30.853,1.61.856.856,0,0,0,30.04.1a8.934,8.934,0,0,0-3.051,2.917,4.888,4.888,0,0,0-1.96-2.21.856.856,0,0,0-.779,1.525,3.172,3.172,0,0,1,1.115,1.273,10.366,10.366,0,0,0-4.6-1.231c-3.625,0-4.166,2.293-4.166,3.659,0,0,0,.009,0,.013L10.8,8.438l-.057.026h0a.762.762,0,0,0-.34.28,1.05,1.05,0,0,0-.132.485v17a.856.856,0,0,0,.482.77l15.632,7.6a.846.846,0,0,0,.772.014L42.816,27a.856.856,0,0,0,.482-.77v-17s0,0,0-.007A.856.856,0,0,0,42.768,8.438Zm-9.8-4.392c2.157,0,2.454.936,2.454,1.947s-.3,1.947-2.454,1.947c-1.253,0-5.207-.646-5.207-1.557S30.592,4.046,32.964,4.046Zm-12.292,0c2.372,0,5.207,1.427,5.207,2.337s-3.954,1.556-5.207,1.556c-2.157,0-2.454-.936-2.454-1.947S18.515,4.046,20.672,4.046ZM17.464,28.359,11.987,25.7V10.508l5.476,2.26V28.359ZM13.378,9.228l3.563-1.47c.469,1.02,1.527,1.937,3.82,1.937a14.648,14.648,0,0,0,2.575-.239l-4.535,2ZM25.93,32.476l-6.754-3.284V13.475l6.754,2.787Zm.86-17.73L21,12.362,26.8,9.8l5.782,2.566ZM34.4,29.195l-6.755,3.285V16.262L34.4,13.475ZM30.275,9.463a14.654,14.654,0,0,0,2.537.232c2.293,0,3.351-.917,3.82-1.937L40.2,9.229l-.284.117L34.777,11.46ZM41.586,25.7,36.11,28.362V12.768L40.6,10.914l.982-.4V25.7Z" transform="translate(-10.275 0)"/></g></svg>