<svg xmlns="http://www.w3.org/2000/svg" width="45.975" height="35.991" viewBox="0 0 45.975 35.991"><defs><style>.a{fill:#fff;stroke:#fff;stroke-width:0.2px;}</style></defs><g transform="translate(0.101 0.12)"><path class="a" d="M45.518,17.344,28.894,4.474a.672.672,0,1,0-.822,1.063l5.109,3.956L22.887,17.042,12.592,9.492l10.294-7.97,2.456,1.9a.672.672,0,0,0,.823-1.063L23.3.142a.672.672,0,0,0-.823,0L.255,17.344a.679.679,0,0,0,0,1.063l22.22,17.2a.679.679,0,0,0,.823,0l22.22-17.2A.679.679,0,0,0,45.518,17.344ZM11.542,10.305c.046.087,10.208,7.57,10.208,7.57s-10.162,7.483-10.208,7.57l-9.778-7.57ZM22.887,34.228l-10.294-7.97,10.294-7.549,10.294,7.549Zm11.345-8.783c-.046-.087-10.208-7.57-10.208-7.57s10.162-7.483,10.208-7.57l9.778,7.57Zm0,0"/><path class="a" d="M219.952,56.117a.672.672,0,0,0-.6.372l-2.867,5.734a.672.672,0,1,0,1.2.6l.89-1.779h2.753l.889,1.779a.672.672,0,1,0,1.2-.6l-2.867-5.734A.672.672,0,0,0,219.952,56.117Zm-.7,3.584.7-1.409.7,1.409Zm0,0" transform="translate(-197.065 -51.099)"/><path class="a" d="M100.416,167.418a1.39,1.39,0,0,0,1.389-1.389V164.6a1.39,1.39,0,0,0-1.389-1.389h-.045v-1.478a1.39,1.39,0,0,0-1.389-1.389h-2.15a.672.672,0,0,0-.672.672v5.734a.672.672,0,0,0,.672.672ZM97.5,161.684h1.478a.045.045,0,0,1,.045.045v1.478H97.5Zm0,2.865h2.912a.045.045,0,0,1,.045.045v1.433a.045.045,0,0,1-.045.045H97.5Zm0,0" transform="translate(-87.564 -146.004)"/><path class="a" d="M354.813,160.34a2.108,2.108,0,0,0-2.106,2.106v2.867a2.108,2.108,0,0,0,2.106,2.106h2.15a.672.672,0,0,0,0-1.344h-2.15a.762.762,0,0,1-.762-.761v-2.867a.762.762,0,0,1,.762-.761h2.15a.672.672,0,0,0,0-1.344Zm0,0" transform="translate(-321.174 -146.004)"/><path class="a" d="M227.973,256.547h-2.867a.672.672,0,0,0-.672.672v5.734a.672.672,0,0,0,.672.672h2.867a2.108,2.108,0,0,0,2.105-2.106v-2.867A2.108,2.108,0,0,0,227.973,256.547Zm.762,4.972a.762.762,0,0,1-.762.762h-2.2v-4.39h2.2a.762.762,0,0,1,.762.762Zm0,0" transform="translate(-204.369 -233.61)"/></g></svg>