<svg xmlns="http://www.w3.org/2000/svg" width="24.849" height="39.677" viewBox="0 0 24.849 39.677"><defs><style>.a{fill:#fff;stroke:#fff;stroke-width:0.3px;}</style></defs><g transform="translate(0.15 0.204)"><path class="a" d="M23.972,19.7H22.223a19.365,19.365,0,0,1-3.844-1.991,12.624,12.624,0,0,0-5.526-2.294V12.889a3.66,3.66,0,0,1,1.1-2.5c.044.071.089.141.137.21a4.275,4.275,0,0,0,5.949,1.048c1.822-1.276,2.579-6.052,2.659-6.592a.577.577,0,0,0-.455-.65c-.535-.109-5.282-1.03-7.1.246a4.278,4.278,0,0,0-1.676,4.6,7.088,7.088,0,0,0-.609.644V9.811A6.169,6.169,0,0,0,11.7,6.22,4.276,4.276,0,0,0,10.274.554C8.4-.649,3.7.459,3.166.589a.577.577,0,0,0-.43.668c.1.537,1.047,5.279,2.918,6.482a4.271,4.271,0,0,0,5.3-.542A4.943,4.943,0,0,1,11.7,9.811v5.6a12.615,12.615,0,0,0-5.527,2.294A19.371,19.371,0,0,1,2.327,19.7H.577A.577.577,0,0,0,0,20.277v4.309a.577.577,0,0,0,.577.577H1.939L4.318,38.845a.577.577,0,0,0,.569.478H19.662a.577.577,0,0,0,.569-.478L22.61,25.164h1.361a.577.577,0,0,0,.577-.577V20.277A.577.577,0,0,0,23.972,19.7ZM15.8,5.593a4.727,4.727,0,0,1,2.436-.456,20.259,20.259,0,0,1,3.228.294c-.342,1.88-1.12,4.589-2.088,5.268A3.112,3.112,0,0,1,14.83,9.6,16.034,16.034,0,0,1,19.8,7.293a.577.577,0,0,0-.28-1.12,17.13,17.13,0,0,0-5.038,2.255A3.117,3.117,0,0,1,15.8,5.593ZM6.279,6.768c-.995-.639-1.879-3.316-2.3-5.181,1.87-.4,4.672-.7,5.666-.062a3.122,3.122,0,0,1,1.231,3.719A9.59,9.59,0,0,0,9.527,4.105,12.557,12.557,0,0,0,6.284,2.486a.577.577,0,0,0-.332,1.105,10.869,10.869,0,0,1,4.3,2.674A3.121,3.121,0,0,1,6.279,6.768Zm.5,11.923c1.786-1.1,3.473-2.146,5.5-2.146s3.711,1.043,5.5,2.146c.55.34,1.108.685,1.689,1.009H5.089C5.669,19.376,6.228,19.031,6.778,18.691Zm16.617,5.318H19.662a.577.577,0,0,0,0,1.155h1.776L19.177,38.169H5.372L3.111,25.164H16.93a.577.577,0,0,0,0-1.155H1.154V20.854h22.24Zm0,0" transform="translate(0 0)"/><path class="a" d="M93.678,336.656a5.5,5.5,0,1,0,5.5,5.5A5.509,5.509,0,0,0,93.678,336.656Zm.577,9.811v-1.23a.577.577,0,0,0-1.154,0v1.23a4.355,4.355,0,0,1-3.731-3.731H90.6a.577.577,0,0,0,0-1.155H89.37A4.356,4.356,0,0,1,93.1,337.85v1.23a.577.577,0,0,0,1.154,0v-1.23a4.356,4.356,0,0,1,3.731,3.731h-1.23a.577.577,0,0,0,0,1.155h1.23A4.356,4.356,0,0,1,94.255,346.467Zm0,0" transform="translate(-81.403 -310.8)"/><path class="a" d="M132.205,377.45l-1.453.969-1.512-1.512a.577.577,0,1,0-.816.816l1.847,1.847a.577.577,0,0,0,.728.072l1.847-1.231a.577.577,0,1,0-.64-.96Zm0,0" transform="translate(-118.404 -347.803)"/></g></svg>